<svg xmlns="http://www.w3.org/2000/svg" width="16" height="16" viewBox="0 0 15 15">
  <path d="M0 1.071A1.071 1.071 0 0 1 1.071 0h2.143a1.071 1.071 0 0 1 1.072 1.071v2.143a1.071 1.071 0 0 1-1.072 1.072H1.071A1.071 1.071 0 0 1 0 3.214Zm5.357 0A1.071 1.071 0 0 1 6.429 0h2.143a1.071 1.071 0 0 1 1.071 1.071v2.143a1.071 1.071 0 0 1-1.071 1.071H6.429a1.071 1.071 0 0 1-1.072-1.071Zm5.357 0A1.071 1.071 0 0 1 11.786 0h2.143A1.071 1.071 0 0 1 15 1.071v2.143a1.071 1.071 0 0 1-1.071 1.071h-2.143a1.071 1.071 0 0 1-1.071-1.071ZM0 6.429a1.071 1.071 0 0 1 1.071-1.072h2.143a1.071 1.071 0 0 1 1.072 1.072v2.143a1.071 1.071 0 0 1-1.071 1.071H1.071A1.071 1.071 0 0 1 0 8.571Zm5.357 0a1.071 1.071 0 0 1 1.072-1.072h2.143a1.071 1.071 0 0 1 1.071 1.071v2.143a1.071 1.071 0 0 1-1.071 1.071H6.429a1.071 1.071 0 0 1-1.071-1.071Zm5.357 0a1.071 1.071 0 0 1 1.071-1.071h2.143A1.071 1.071 0 0 1 15 6.429v2.143a1.071 1.071 0 0 1-1.071 1.071h-2.143a1.071 1.071 0 0 1-1.071-1.071Zm-5.357 5.357a1.071 1.071 0 0 1 1.071-1.071h2.143a1.071 1.071 0 0 1 1.071 1.071v2.143A1.071 1.071 0 0 1 8.571 15H6.429a1.071 1.071 0 0 1-1.071-1.071Z" fill="#fff"/>
</svg>
