<svg xmlns="http://www.w3.org/2000/svg" viewBox="0 0 600 600" fill="#fff"><circle transform="translate(44 44)" cx="256" cy="56" r="56"/><path d="M348 172h-96a64.19 64.19 0 0 0-64 64v107.52c0 10.85 8.43 20.08 19.27 20.47A20 20 0 0 0 228 344v-99.73a8.18 8.18 0 0 1 7.47-8.25 8 8 0 0 1 8.53 8V533a23 23 0 0 0 23 23 23 23 0 0 0 23-23V390.34a10.24 10.24 0 0 1 9.33-10.34A10 10 0 0 1 310 390v143a23 23 0 0 0 23 23 23 23 0 0 0 23-23V244.27a8.18 8.18 0 0 1 7.47-8.25 8 8 0 0 1 8.53 8v99.52c0 10.85 8.43 20.08 19.27 20.47A20 20 0 0 0 412 344V236a64.19 64.19 0 0 0-64-64z"/></svg>